[0;36m{"timestamp": "2026-01-31 21:54:00,988", "level": "INFO", "service": "main_window", "request_id": "N/A", "message": "MainWindow initialized", "data": {"request_id": "req_a6ce0515"}}[0m
[0;36m{"timestamp": "2026-01-31 21:54:00,991", "level": "INFO", "service": "audio", "request_id": "N/A", "message": "AudioRecorder initialized", "data": {"request_id": "req_1bd81ac9", "sample_rate": 16000, "channels": 1}}[0m
[0;36m{"timestamp": "2026-01-31 21:54:00,991", "level": "INFO", "service": "audio", "request_id": "N/A", "message": "AudioRecorder initialized", "data": {"request_id": "req_c2c2e2a2", "sample_rate": 16000, "channels": 1}}[0m
[0;36m{"timestamp": "2026-01-31 21:54:01,141", "level": "INFO", "service": "audio", "request_id": "N/A", "message": "Stream started", "data": {"request_id": "req_c2c2e2a2", "requested_rate": 16000, "actual_rate": 44100.0, "channels": 2, "device_index": 1}}[0m
[0;33m{"timestamp": "2026-01-31 21:54:01,141", "level": "WARNING", "service": "audio", "request_id": "N/A", "message": "Sample rate mismatch", "data": {"request_id": "req_c2c2e2a2", "requested": 16000, "actual": 44100.0}}[0m
[0;35m{"timestamp": "2026-01-31 21:54:02,140", "level": "DEBUG", "service": "audio", "request_id": "N/A", "message": "Audio status changed: input overflow", "data": {"request_id": "req_c2c2e2a2", "status": "input overflow", "frames": 4410}}[0m
[0;36m{"timestamp": "2026-01-31 21:54:07,059", "level": "INFO", "service": "audio", "request_id": "N/A", "message": "Stream started", "data": {"request_id": "req_c2c2e2a2", "requested_rate": 16000, "actual_rate": 44100.0, "channels": 2, "device_index": 1}}[0m
[0;33m{"timestamp": "2026-01-31 21:54:07,060", "level": "WARNING", "service": "audio", "request_id": "N/A", "message": "Sample rate mismatch", "data": {"request_id": "req_c2c2e2a2", "requested": 16000, "actual": 44100.0}}[0m
qt.multimedia.ffmpeg: Using Qt multimedia with FFmpeg version 7.1.2 LGPL version 2.1 or later
[mov,mp4,m4a,3gp,3g2,mj2 @ 0000028D18BFA280] Detected creation time before 1970, parsing as unix timestamp.
[mov,mp4,m4a,3gp,3g2,mj2 @ 0000028D18BFA280] Detected creation time before 1970, parsing as unix timestamp.
Input #0, mov,mp4,m4a,3gp,3g2,mj2, from 'C:/Users/Goryeng/Videos/작업/여주의 첫사랑을 빼앗아 버렸다.mp4':
  Metadata:
    major_brand     : mp42
    minor_version   : 512
    compatible_brands: mp42isom
    creation_time   : 2025-09-21T10:24:07.000000Z
  Duration: 00:07:13.07, start: 0.000000, bitrate: 10260 kb/s
  Stream #0:0[0x1](eng): Video: h264 (Main) (avc1 / 0x31637661), yuv420p(tv, bt709, progressive), 1920x1080 [SAR 1:1 DAR 16:9], 10045 kb/s, 60 fps, 60 tbr, 60k tbn (default)
      Metadata:
        creation_time   : 2025-09-21T10:24:07.000000Z
        handler_name    : VideoHandler
        vendor_id       : [0][0][0][0]
        encoder         : h264
  Stream #0:1[0x2](eng): Audio: aac (LC) (mp4a / 0x6134706D), 44100 Hz, stereo, fltp, 192 kb/s (default)
      Metadata:
        creation_time   : 2025-09-21T10:24:07.000000Z
        handler_name    : SoundHandler
        vendor_id       : [0][0][0][0]
[aac @ 0000028D03F0F500] Could not update timestamps for skipped samples.
